<svg width="88" height="88" viewBox="0 0 88 88" fill="none" xmlns="http://www.w3.org/2000/svg">
<path d="M82.5 1.375H22C19.7257 1.375 17.875 3.22575 17.875 5.5V26.125H8.25C4.45913 26.125 1.375 29.2091 1.375 33V66C1.375 69.7909 4.45913 72.875 8.25 72.875H21.4665L19.6336 78.375H15.125C12.8507 78.375 11 80.2258 11 82.5V86.625H52.25V82.5C52.25 80.2258 50.3993 78.375 48.125 78.375H43.6164L41.7835 72.875H55C58.7909 72.875 61.875 69.7909 61.875 66V64.625H82.5C84.7743 64.625 86.625 62.7743 86.625 60.5V5.5C86.625 3.22575 84.7743 1.375 82.5 1.375ZM22 4.125H82.5C83.2576 4.125 83.875 4.74238 83.875 5.5V12.375H20.625V5.5C20.625 4.74238 21.2424 4.125 22 4.125ZM8.25 28.875H55C57.2743 28.875 59.125 30.7257 59.125 33V59.125H4.125V33C4.125 30.7257 5.97575 28.875 8.25 28.875ZM61.875 37.125H78.375V56.375H61.875V37.125ZM49.5 82.5V83.875H13.75V82.5C13.75 81.7424 14.3674 81.125 15.125 81.125H48.125C48.8826 81.125 49.5 81.7424 49.5 82.5ZM40.7165 78.375H22.5335L24.3664 72.875H38.8836L40.7165 78.375ZM55 70.125H8.25C5.97575 70.125 4.125 68.2743 4.125 66V61.875H59.125V66C59.125 68.2743 57.2743 70.125 55 70.125ZM82.5 61.875H61.875V59.125H81.125V34.375H61.875V33C61.875 29.2091 58.7909 26.125 55 26.125H20.625V15.125H83.875V60.5C83.875 61.2576 83.2576 61.875 82.5 61.875Z" fill="#1E1D1D"/>
<path d="M24.75 64.625H27.5V67.375H24.75V64.625Z" fill="#FF64CB"/>
<path d="M30.25 64.625H33V67.375H30.25V64.625Z" fill="#8B1AE4"/>
<path d="M35.75 64.625H38.5V67.375H35.75V64.625Z" fill="#00F0FF"/>
<path d="M28.875 6.875H31.625V9.625H28.875V6.875Z" fill="#FFF510"/>
<path d="M34.375 6.875H37.125V9.625H34.375V6.875Z" fill="#FF0606"/>
<path d="M23.375 6.875H26.125V9.625H23.375V6.875Z" fill="#10FE44"/>
<path d="M23.375 17.875H26.125V20.625H23.375V17.875Z" fill="#FF64CB" fill-opacity="0.84"/>
<path d="M28.875 17.875H81.125V20.625H28.875V17.875Z" fill="#FF64CB"/>
<path d="M64.625 23.375H81.125V26.125H64.625V23.375Z" fill="#FF64CB" fill-opacity="0.59"/>
<path d="M64.625 28.875H81.125V31.625H64.625V28.875Z" fill="#FF64CB" fill-opacity="0.29"/>
<path d="M11 56.375H38.5C40.7743 56.375 42.625 54.5243 42.625 52.25V35.75C42.625 33.4757 40.7743 31.625 38.5 31.625H11C8.72575 31.625 6.875 33.4757 6.875 35.75V52.25C6.875 54.5243 8.72575 56.375 11 56.375ZM9.625 35.75C9.625 34.9924 10.2424 34.375 11 34.375H38.5C39.2576 34.375 39.875 34.9924 39.875 35.75V52.25C39.875 53.0076 39.2576 53.625 38.5 53.625H11C10.2424 53.625 9.625 53.0076 9.625 52.25V35.75Z" fill="#898989"/>
<path d="M20.7039 51.7927L26.1998 35.2873L28.8096 36.1563L23.3136 52.6617L20.7039 51.7927Z" fill="#8B1AE4"/>
<path d="M31.2221 50.4721L37.6942 44L31.2221 37.5279L29.2778 39.4721L33.8057 44L29.2778 48.5279L31.2221 50.4721Z" fill="#8B1AE4"/>
<path d="M20.2223 48.5279L15.6944 44L20.2223 39.4721L18.278 37.5279L11.8059 44L18.278 50.4721L20.2223 48.5279Z" fill="#8B1AE4"/>
<path d="M45.375 31.625H56.375V34.375H45.375V31.625Z" fill="#8B1AE4" fill-opacity="0.15"/>
<path d="M45.375 37.125H56.375V39.875H45.375V37.125Z" fill="#8B1AE4" fill-opacity="0.49"/>
<path d="M45.375 42.625H56.375V45.375H45.375V42.625Z" fill="#8B1AE4" fill-opacity="0.74"/>
<path d="M45.375 48.125H56.375V50.875H45.375V48.125Z" fill="#8B1AE4"/>
<path d="M48.125 53.625H50.875V56.375H48.125V53.625Z" fill="#E5E5E5"/>
<path d="M53.625 53.625H56.375V56.375H53.625V53.625Z" fill="#494646"/>
</svg>
