<svg width="107" height="107" viewBox="0 0 107 107" fill="none" xmlns="http://www.w3.org/2000/svg">
<g clip-path="url(#clip0)">
<path d="M84.6506 76.7611C79.9519 76.7611 75.4397 75.2074 71.5595 72.2575C71.327 72.1501 71.1081 72.0019 70.9181 71.8111L61.162 62.1248C60.2505 61.2228 60.2454 59.7482 61.1526 58.8359C62.065 57.9244 63.5344 57.9287 64.4467 58.8265L73.8067 68.1218C73.8765 68.1686 73.9464 68.2146 74.0111 68.2658C77.1519 70.7829 80.8318 72.1084 84.6506 72.1084C94.411 72.1084 102.348 63.7629 102.348 53.5C102.348 43.237 94.4067 34.8916 84.6506 34.8916C80.8361 34.8916 77.1561 36.217 74.0111 38.7291C73.9047 38.8177 73.7837 38.8918 73.6627 38.9617L35.9706 71.9133C35.7985 72.0624 35.6128 72.1876 35.4126 72.2762C31.5419 75.2116 27.0382 76.7611 22.3488 76.7611C10.0253 76.7611 0 66.3261 0 53.5C0 40.6739 10.0253 30.2388 22.3488 30.2388C27.0476 30.2388 31.5606 31.7926 35.4399 34.7425C35.6733 34.8498 35.8914 34.9981 36.0822 35.1889L45.8383 44.8751C46.7498 45.7772 46.754 47.2517 45.8468 48.1641C44.9396 49.0806 43.4702 49.0806 42.5536 48.1734L33.1936 38.8739C33.1237 38.8271 33.0539 38.7802 32.9883 38.7291C29.8484 36.217 26.1685 34.8916 22.3488 34.8916C12.5936 34.8916 4.65189 43.237 4.65189 53.5C4.65189 63.7629 12.5936 72.1084 22.3488 72.1084C26.1642 72.1084 29.8433 70.7829 32.9883 68.2709C33.0956 68.1823 33.2166 68.1082 33.3376 68.0383L71.0297 35.0866C71.2018 34.9376 71.3875 34.8124 71.5877 34.7238C75.4584 31.7883 79.9612 30.2388 84.6506 30.2388C96.9742 30.2388 107 40.6739 107 53.5C107 66.3261 96.9742 76.7611 84.6506 76.7611Z" fill="url(#paint0_linear)"/>
<path d="M44.196 48.8481H30.2395C28.9549 48.8481 27.9131 47.8054 27.9131 46.5217C27.9131 45.238 28.9549 44.1954 30.2395 44.1954H41.8696V32.5652C41.8696 31.2815 42.9114 30.2388 44.196 30.2388C45.4797 30.2388 46.5215 31.2815 46.5215 32.5652V46.5217C46.5215 47.8054 45.4797 48.8481 44.196 48.8481Z" fill="#C4C4C4"/>
<path d="M62.8044 76.7612C61.5207 76.7612 60.478 75.7185 60.478 74.4348V60.4783C60.478 59.1946 61.5207 58.1519 62.8044 58.1519H76.7609C78.0446 58.1519 79.0873 59.1946 79.0873 60.4783C79.0873 61.762 78.0446 62.8047 76.7609 62.8047H65.1308V74.4348C65.1308 75.7185 64.0881 76.7612 62.8044 76.7612Z" fill="#8A00CB"/>
</g>
<defs>
<linearGradient id="paint0_linear" x1="53.5001" y1="30.2388" x2="53.5001" y2="76.7611" gradientUnits="userSpaceOnUse">
<stop stop-color="#8B1AE4"/>
<stop offset="0.697574" stop-color="#C4C4C4"/>
</linearGradient>
<clipPath id="clip0">
<rect width="107" height="107" fill="white"/>
</clipPath>
</defs>
</svg>
