<svg width="252" height="32" viewBox="0 0 252 32" fill="none" xmlns="http://www.w3.org/2000/svg">
<path d="M7.88 26.098L0.166 17.7L7.88 9.302H16.05L8.298 17.7L16.05 26.098H7.88ZM19.9937 20.36C19.9937 18.1813 20.399 16.2687 21.2097 14.622C22.0457 12.9753 23.173 11.7087 24.5917 10.822C26.0104 9.93533 27.5937 9.492 29.3417 9.492C30.735 9.492 32.0017 9.78333 33.1417 10.366C34.307 10.9487 35.219 11.734 35.8777 12.722V2.88H42.3757V31H35.8777V27.96C35.2697 28.9733 34.3957 29.784 33.2557 30.392C32.141 31 30.8364 31.304 29.3417 31.304C27.5937 31.304 26.0104 30.8607 24.5917 29.974C23.173 29.062 22.0457 27.7827 21.2097 26.136C20.399 24.464 19.9937 22.5387 19.9937 20.36ZM35.8777 20.398C35.8777 18.7767 35.4217 17.4973 34.5097 16.56C33.623 15.6227 32.5337 15.154 31.2417 15.154C29.9497 15.154 28.8477 15.6227 27.9357 16.56C27.049 17.472 26.6057 18.7387 26.6057 20.36C26.6057 21.9813 27.049 23.2733 27.9357 24.236C28.8477 25.1733 29.9497 25.642 31.2417 25.642C32.5337 25.642 33.623 25.1733 34.5097 24.236C35.4217 23.2987 35.8777 22.0193 35.8777 20.398ZM50.3447 7.592C49.2047 7.592 48.2674 7.26266 47.5327 6.604C46.8234 5.92 46.4687 5.084 46.4687 4.096C46.4687 3.08267 46.8234 2.24667 47.5327 1.588C48.2674 0.903998 49.2047 0.561998 50.3447 0.561998C51.4594 0.561998 52.3714 0.903998 53.0807 1.588C53.8154 2.24667 54.1827 3.08267 54.1827 4.096C54.1827 5.084 53.8154 5.92 53.0807 6.604C52.3714 7.26266 51.4594 7.592 50.3447 7.592ZM53.5747 9.796V31H47.0767V9.796H53.5747ZM67.8217 24.92L72.4197 9.796H79.3357L71.8117 31H63.7937L56.2697 9.796H63.2237L67.8217 24.92Z" fill="#8B1AE4"/>
<path d="M88.8316 20.398C88.8316 18.194 89.2749 16.2687 90.1616 14.622C91.0736 12.9753 92.3276 11.7087 93.9236 10.822C95.5449 9.93533 97.3942 9.492 99.4716 9.492C102.132 9.492 104.348 10.1887 106.122 11.582C107.92 12.9753 109.098 14.9387 109.656 17.472H102.74C102.157 15.8507 101.03 15.04 99.3576 15.04C98.1669 15.04 97.2169 15.5087 96.5076 16.446C95.7982 17.358 95.4436 18.6753 95.4436 20.398C95.4436 22.1207 95.7982 23.4507 96.5076 24.388C97.2169 25.3 98.1669 25.756 99.3576 25.756C101.03 25.756 102.157 24.9453 102.74 23.324H109.656C109.098 25.8067 107.92 27.7573 106.122 29.176C104.323 30.5947 102.106 31.304 99.4716 31.304C97.3942 31.304 95.5449 30.8607 93.9236 29.974C92.3276 29.0873 91.0736 27.8207 90.1616 26.174C89.2749 24.5273 88.8316 22.602 88.8316 20.398ZM119.629 2.88V31H113.131V2.88H119.629ZM123.046 20.36C123.046 18.1813 123.452 16.2687 124.262 14.622C125.098 12.9753 126.226 11.7087 127.644 10.822C129.063 9.93533 130.646 9.492 132.394 9.492C133.889 9.492 135.194 9.796 136.308 10.404C137.448 11.012 138.322 11.81 138.93 12.798V9.796H145.428V31H138.93V27.998C138.297 28.986 137.41 29.784 136.27 30.392C135.156 31 133.851 31.304 132.356 31.304C130.634 31.304 129.063 30.8607 127.644 29.974C126.226 29.062 125.098 27.7827 124.262 26.136C123.452 24.464 123.046 22.5387 123.046 20.36ZM138.93 20.398C138.93 18.7767 138.474 17.4973 137.562 16.56C136.676 15.6227 135.586 15.154 134.294 15.154C133.002 15.154 131.9 15.6227 130.988 16.56C130.102 17.472 129.658 18.7387 129.658 20.36C129.658 21.9813 130.102 23.2733 130.988 24.236C131.9 25.1733 133.002 25.642 134.294 25.642C135.586 25.642 136.676 25.1733 137.562 24.236C138.474 23.2987 138.93 22.0193 138.93 20.398ZM158.755 31.304C156.906 31.304 155.259 30.9873 153.815 30.354C152.371 29.7207 151.231 28.8593 150.395 27.77C149.559 26.6553 149.091 25.414 148.989 24.046H155.411C155.487 24.7807 155.829 25.376 156.437 25.832C157.045 26.288 157.793 26.516 158.679 26.516C159.49 26.516 160.111 26.364 160.541 26.06C160.997 25.7307 161.225 25.3127 161.225 24.806C161.225 24.198 160.909 23.7547 160.275 23.476C159.642 23.172 158.616 22.8427 157.197 22.488C155.677 22.1333 154.411 21.766 153.397 21.386C152.384 20.9807 151.51 20.36 150.775 19.524C150.041 18.6627 149.673 17.51 149.673 16.066C149.673 14.85 150.003 13.748 150.661 12.76C151.345 11.7467 152.333 10.9487 153.625 10.366C154.943 9.78333 156.501 9.492 158.299 9.492C160.959 9.492 163.049 10.1507 164.569 11.468C166.115 12.7853 167.001 14.5333 167.229 16.712H161.225C161.124 15.9773 160.795 15.3947 160.237 14.964C159.705 14.5333 158.996 14.318 158.109 14.318C157.349 14.318 156.767 14.47 156.361 14.774C155.956 15.0527 155.753 15.4453 155.753 15.952C155.753 16.56 156.07 17.016 156.703 17.32C157.362 17.624 158.375 17.928 159.743 18.232C161.314 18.6373 162.593 19.0427 163.581 19.448C164.569 19.828 165.431 20.4613 166.165 21.348C166.925 22.2093 167.318 23.3747 167.343 24.844C167.343 26.0853 166.989 27.2 166.279 28.188C165.595 29.1507 164.595 29.9107 163.277 30.468C161.985 31.0253 160.478 31.304 158.755 31.304ZM179.945 31.304C178.096 31.304 176.449 30.9873 175.005 30.354C173.561 29.7207 172.421 28.8593 171.585 27.77C170.749 26.6553 170.28 25.414 170.179 24.046H176.601C176.677 24.7807 177.019 25.376 177.627 25.832C178.235 26.288 178.982 26.516 179.869 26.516C180.68 26.516 181.3 26.364 181.731 26.06C182.187 25.7307 182.415 25.3127 182.415 24.806C182.415 24.198 182.098 23.7547 181.465 23.476C180.832 23.172 179.806 22.8427 178.387 22.488C176.867 22.1333 175.6 21.766 174.587 21.386C173.574 20.9807 172.7 20.36 171.965 19.524C171.23 18.6627 170.863 17.51 170.863 16.066C170.863 14.85 171.192 13.748 171.851 12.76C172.535 11.7467 173.523 10.9487 174.815 10.366C176.132 9.78333 177.69 9.492 179.489 9.492C182.149 9.492 184.239 10.1507 185.759 11.468C187.304 12.7853 188.191 14.5333 188.419 16.712H182.415C182.314 15.9773 181.984 15.3947 181.427 14.964C180.895 14.5333 180.186 14.318 179.299 14.318C178.539 14.318 177.956 14.47 177.551 14.774C177.146 15.0527 176.943 15.4453 176.943 15.952C176.943 16.56 177.26 17.016 177.893 17.32C178.552 17.624 179.565 17.928 180.933 18.232C182.504 18.6373 183.783 19.0427 184.771 19.448C185.759 19.828 186.62 20.4613 187.355 21.348C188.115 22.2093 188.508 23.3747 188.533 24.844C188.533 26.0853 188.178 27.2 187.469 28.188C186.785 29.1507 185.784 29.9107 184.467 30.468C183.175 31.0253 181.668 31.304 179.945 31.304ZM222.069 9.986V15.724H200.789V9.986H222.069ZM222.069 19.676V25.414H200.789V19.676H222.069ZM240.811 14.508H234.161L238.417 4.324H242.787L240.811 14.508ZM249.437 14.508H242.825L247.081 4.324H251.413L249.437 14.508Z" fill="#C2C2C2"/>
</svg>
